<svg xmlns="http://www.w3.org/2000/svg" version="1.1" xmlns:xlink="http://www.w3.org/1999/xlink" xmlns:svgjs="http://svgjs.dev/svgjs" width="1000" height="750" viewBox="0 0 1000 750"><rect width="1000" height="750" fill="#1b4571"></rect><g transform="matrix(0.5191111111111111,0,0,0.5191111111111111,240.4444444444445,83)"><svg viewBox="0 0 320 360" data-background-color="#1b4571" preserveAspectRatio="xMidYMid meet" height="1125" width="1000" xmlns="http://www.w3.org/2000/svg" xmlns:xlink="http://www.w3.org/1999/xlink"><g id="tight-bounds" transform="matrix(1,0,0,1,0,0)"><svg viewBox="0 0 320 360" height="360" width="320"><g><svg></svg></g><g><svg viewBox="0 0 320 360" height="360" width="320"><g><path xmlns="http://www.w3.org/2000/svg" d="M20.961 227.22l3.726 4.658-1.863-6.056c-0.466-2.795-3.726 0.466-1.863 1.398M25.153 224.425c1.397 2.329 2.795 4.658 2.795 6.987 0 3.261 2.795 4.658 5.123 5.589-3.261-3.726-5.124-13.974-7.918-12.576M204.017 26.929c7.918 0 15.371-0.932 23.756 0.931 20.495 5.124 37.729 15.371 49.374 29.811l32.606 52.169c1.397 13.042 4.192 27.482 3.726 43.319 3.261 0 2.795-4.658 6.521-5.59-3.726 9.316-5.59 20.961-6.521 34.469-2.329-7.453 0-18.632 0.466-24.687-3.261 5.124-5.124 1.397-5.124-0.932 0.466-3.726-1.397-3.261-2.795-4.658-5.124-4.658-8.384-9.782-12.11-17.7 2.329-6.055 2.795-14.905-4.658-19.563-2.329-1.397-5.124-3.726-6.521-7.453-1.863-5.124-5.124-11.179-4.193-19.097 0.466-2.329-6.987 5.124-11.179 1.863-18.166-12.576-36.332-27.016-58.224-39.127-11.645 0-20.029-4.192-24.221-9.316-3.726-4.658-0.932-10.713 4.658-11.179 3.261 0 6.987-0.932 9.782 0.932 0.466-1.863 2.329-4.192 4.657-4.192M157.904 16.215l0.932 0.466c4.658 0.932 6.987 7.453 12.11 5.124 0 3.261 0.466 6.521-0.466 8.85-1.397 3.726-5.59 3.726-8.85 3.726-31.208-1.863-49.374 11.179-68.471 22.358-5.124 3.261-10.713 5.59-14.906 9.782-20.029 18.632-41.921 35.866-47.045 70.335l-4.192 38.195c-0.466 4.192-5.124 8.384-4.192 13.508l3.26 22.824c-3.261-3.261-5.124 0.932-4.192 2.795 0.466 1.397 2.329 6.055 5.124 1.863 3.726 6.987 7.453 20.495 12.576 26.55 15.837 18.632 36.332 35.4 53.101 52.169 4.192-0.932 7.453-0.932 8.384-3.727 1.397 2.795-1.397 5.59-3.726 6.056 7.453 4.658 15.837 8.85 27.016 9.781 14.44 0.932 27.948 3.261 40.524 6.522 6.521-1.863 13.042-2.795 20.029-3.261 2.329 0 3.726-3.726 6.521-4.658l0.466-4.658c2.795 4.192 2.329-1.397 0.466-4.192 3.261 2.795 4.192 5.124 5.589 6.987 0-1.397 3.726-6.521 3.727-0.466l0.931-6.055c1.397-0.932 1.863 5.124 3.261 0.931 1.397-4.192 4.192-0.932 6.987-2.329-0.932 1.863-0.466 5.59 2.794 3.261l3.727-3.261c2.329 5.59 6.055 3.261 7.918 2.329 20.495-13.042 40.99-28.413 60.553-43.784l-0.466 6.055 2.329-7.453c2.329 2.329 4.192 0.466 5.124-0.931 2.795-4.658 6.521-9.316 12.577-13.508-7.453 20.029-16.303 35.866-27.482 48.908l-4.658 5.59c0 3.261-0.932 7.453-4.658 7.918-1.863 0.466-5.59-0.932-8.384 1.863-1.397 1.863 3.261 5.59-0.466 2.795-3.261-2.329-6.521 0-10.248 0.932-2.795 0.932 1.863 3.726 2.795 5.589 0.932 1.863 1.863 3.726 1.398 6.056l-5.124-5.59c-6.055 3.261-9.782 9.316-14.906 13.974-2.329 1.863-1.397 5.124-1.397 7.918-3.261 0-6.987-0.932-8.85 0.932-1.397 1.863-0.932 4.658-0.932 7.453-4.658-0.466-5.124-7.453-9.315-6.056-4.192 0.932-8.85 1.397-12.577 3.727 2.795 5.59-4.658 2.329-3.726 3.26-6.987-4.192-13.042-7.453-20.495-4.658-15.837-5.124-35.4-2.795-49.84-0.931 0-2.329 0.466-4.658-0.466-5.124-0.932 2.329-3.726 1.397-3.26 1.397-8.85-6.055-17.7-9.782-27.016-14.905-8.384 0.932-16.303-3.261-18.632-5.59-6.521-6.055-13.974-2.795-20.029-4.192-13.042-3.261-17.7-16.769-19.098-26.084-0.932-4.658-4.658-6.521-6.055-6.056-6.055-19.563-15.371-37.263-22.824-55.429-1.863-4.658-1.397-9.316-1.397-14.44 2.329 0.932 4.658 0.466 4.192-2.794-2.329-15.371-7.918-27.016-13.974-38.195 3.261-15.837 3.726-34.469 11.179-48.443 6.521-12.576 18.632-19.098 27.016-29.811 2.795-3.726 2.795-8.85 5.59-12.11 9.316-9.316 18.632-19.098 28.879-27.482 4.658-3.726 10.247 0 17.234-1.397 2.329-8.384 11.645-15.837 20.495-13.508 3.726 0.932 11.179-8.85 13.508-9.782 3.726-1.397 1.863 3.726 1.863 6.987 8.85-6.987 20.961-10.713 32.14-14.906" fill="#ffffff" fill-rule="nonzero" stroke="none" stroke-width="1" stroke-linecap="butt" stroke-linejoin="miter" stroke-miterlimit="10" stroke-dasharray="" stroke-dashoffset="0" font-family="none" font-weight="none" font-size="none" text-anchor="none" style="mix-blend-mode: normal" data-fill-palette-color="tertiary"></path></g><g transform="matrix(1,0,0,1,64,116.12355212355212)"><svg viewBox="0 0 192 127.75289575289575" height="127.75289575289575" width="192"><g><svg viewBox="0 0 192 127.75289575289575" height="127.75289575289575" width="192"><g><svg viewBox="0 0 192 127.75289575289575" height="127.75289575289575" width="192"><g><svg viewBox="0 0 192 127.75289575289575" height="127.75289575289575" width="192"><g id="textblocktransform"><svg viewBox="0 0 192 127.75289575289575" height="127.75289575289575" width="192" id="textblock"><g><svg viewBox="0 0 192 127.75289575289575" height="127.75289575289575" width="192"><g transform="matrix(1,0,0,1,0,0)"><svg width="192" viewBox="3.8299999237060547 -36.18000030517578 56.910003662109375 37.86000061035156" height="127.75289575289575" data-palette-color="#ffffff"><path d="M4.27-0.37L3.86-9.08Q3.86-9.11 3.85-9.13 3.83-9.16 3.83-9.18L3.83-9.18Q3.83-9.59 4.27-9.59L4.27-9.59Q4.49-9.59 4.76-9.38L4.76-9.38Q6.08-8.13 7.69-7.4 9.3-6.67 11.21-6.67L11.21-6.67Q11.72-6.67 12.38-6.77 13.04-6.88 13.62-7.14 14.21-7.4 14.61-7.81 15.01-8.23 15.01-8.86L15.01-8.86Q15.01-9.57 14.67-10.13 14.33-10.69 13.77-11.08L13.77-11.08Q13.55-11.23 13.11-11.57 12.67-11.91 12.11-12.35 11.55-12.79 10.94-13.29 10.33-13.79 9.78-14.25 9.23-14.7 8.79-15.06 8.35-15.43 8.13-15.63L8.13-15.63Q6.69-16.7 5.85-17.8 5-18.9 4.57-20.09 4.13-21.29 4-22.57 3.88-23.85 3.88-25.29L3.88-25.29Q3.88-27.44 4.91-29.37 5.93-31.3 7.8-32.73 9.67-34.16 12.28-35 14.89-35.84 18.09-35.84L18.09-35.84Q18.48-35.84 19.26-35.75 20.04-35.67 20.98-35.47 21.92-35.28 22.9-34.94 23.88-34.59 24.68-34.06L24.68-34.06Q24.95-33.86 25.11-33.67 25.27-33.47 25.32-33.06L25.32-33.06Q25.44-31.08 25.51-29.16 25.59-27.25 25.71-25.1L25.71-25.1Q25.71-24.68 25.54-24.55 25.37-24.41 25.1-24.41L25.1-24.41Q24.83-24.41 24.68-24.56L24.68-24.56Q23.97-25.27 23.22-25.95 22.46-26.64 21.63-27.16 20.8-27.69 19.86-28 18.92-28.32 17.82-28.32L17.82-28.32Q17.16-28.32 16.5-28.21 15.84-28.1 15.31-27.81 14.77-27.51 14.44-27 14.11-26.49 14.11-25.71L14.11-25.71Q14.11-24.88 14.32-24.27 14.53-23.66 15.36-23.12L15.36-23.12 21.22-19.14Q22.83-17.99 23.83-16.86 24.83-15.72 25.39-14.6 25.95-13.48 26.16-12.39 26.37-11.3 26.37-10.25L26.37-10.25Q26.37-8.54 25.81-7.03 25.24-5.52 24.27-4.24 23.29-2.95 21.98-1.94 20.68-0.93 19.19-0.21 17.7 0.51 16.1 0.89 14.5 1.27 12.96 1.27L12.96 1.27Q11.77 1.27 10.61 1.23 9.45 1.2 8.35 1.04 7.25 0.88 6.23 0.55 5.2 0.22 4.27-0.37L4.27-0.37ZM60.74-25.37L60.74-25.37Q60.72-23.27 60.34-21.61 59.96-19.95 59.26-18.62 58.57-17.29 57.58-16.22 56.59-15.16 55.32-14.23L55.32-14.23Q52.88-12.48 49.97-11.58 47.07-10.69 44.14-10.69L44.14-10.69Q43.65-10.69 43.17-10.72 42.7-10.74 42.21-10.79L42.21-10.79 41.4-1.88 40.99-1.12Q40.94-1.03 40.16-0.73 39.38-0.44 38.21-0.05L38.21-0.05 36.67 0.46Q35.94 0.73 35.37 0.95 34.81 1.17 34.32 1.34 33.84 1.51 33.37 1.6 32.91 1.68 32.39 1.68L32.39 1.68Q32.05 1.68 31.86 1.51 31.66 1.34 31.66 0.85L31.66 0.85 31.93-3.32Q32-4.57 32.11-5.82 32.22-7.08 32.32-8.69L32.32-8.69 32.79-14.53Q32.93-16.31 33.05-18.09 33.18-19.87 33.3-21.48 33.42-23.1 33.52-24.5 33.62-25.9 33.69-26.95L33.69-26.95Q32.37-26.66 31.58-26.53 30.78-26.39 30.37-26.39L30.37-26.39Q29.86-26.39 29.86-26.83L29.86-26.83Q30.2-28.03 30.49-29.17L30.49-29.17Q30.76-30.15 31.04-31.19 31.32-32.23 31.52-32.93L31.52-32.93Q31.64-33.37 31.8-33.61 31.96-33.84 32.21-33.97 32.47-34.11 32.87-34.22 33.27-34.33 33.86-34.52L33.86-34.52Q34.32-34.67 35.17-34.85 36.01-35.03 37.09-35.22 38.18-35.4 39.45-35.57 40.72-35.74 42.03-35.88 43.33-36.01 44.6-36.1 45.87-36.18 46.99-36.18L46.99-36.18Q49.78-36.18 52.27-35.67 54.76-35.16 56.64-33.92 58.52-32.69 59.63-30.6 60.74-28.52 60.74-25.37ZM42.89-18.04L42.89-18.04Q42.89-17.77 42.99-17.57 43.09-17.36 43.53-17.36L43.53-17.36Q44.21-17.36 45.15-17.66 46.09-17.97 47.03-18.58 47.97-19.19 48.78-20.09 49.58-21 50-22.22L50-22.22Q50.17-22.71 50.28-23.46 50.39-24.22 50.39-25.24L50.39-25.24Q50.39-26.95 49.2-27.76 48.02-28.56 46.12-28.56L46.12-28.56Q45.8-28.56 45.4-28.53 44.99-28.49 44.64-28.39 44.28-28.3 44.04-28.16 43.8-28.03 43.77-27.81L43.77-27.81 43.72-27.27Q43.7-26.95 43.63-26.23 43.55-25.51 43.47-24.58 43.38-23.66 43.3-22.63 43.21-21.61 43.12-20.68 43.04-19.75 42.98-19.04 42.92-18.33 42.89-18.04Z" opacity="1" transform="matrix(1,0,0,1,0,0)" fill="#ffffff" class="wordmark-text-0" data-fill-palette-color="primary" id="text-0"></path></svg></g></svg></g></svg></g></svg></g><g></g></svg></g></svg></g></svg></g></svg></g><defs></defs></svg><rect width="320" height="360" fill="none" stroke="none" visibility="hidden"></rect></g></svg></g></svg>